<?xml version="1.0" encoding="UTF-8" standalone="no"?>
<!DOCTYPE svg PUBLIC "-//W3C//DTD SVG 1.1//EN" "http://www.w3.org/Graphics/SVG/1.1/DTD/svg11.dtd">
<svg xmlns="http://www.w3.org/2000/svg" version="1.1" viewBox="0.00 0.00 509.00 624.00">
<path fill="#ffffff" d="
  M 358.20 0.00
  L 359.55 0.45
  A 0.72 0.71 -81.0 0 1 360.04 1.13
  L 360.04 65.92
  A 0.64 0.64 0.0 0 1 359.40 66.56
  L 151.17 66.56
  A 0.49 0.49 0.0 0 1 150.82 65.73
  Q 182.48 33.98 214.76 1.77
  Q 215.38 1.15 218.23 0.00
  L 358.20 0.00
  Z"
/>
<path fill="#ffffff" d="
  M 289.96 85.04
  A 0.83 0.83 0.0 0 1 290.79 84.21
  L 358.66 84.21
  A 1.40 1.40 0.0 0 1 360.06 85.61
  Q 360.05 160.88 360.06 271.50
  C 360.06 274.14 359.49 276.18 357.77 278.32
  Q 355.19 281.53 351.96 284.71
  Q 326.24 310.12 295.52 341.01
  Q 293.27 343.28 290.27 342.66
  A 0.40 0.40 0.0 0 1 289.96 342.27
  L 289.96 85.04
  Z"
/>
<rect fill="#ffffff" x="-35.04" y="-26.14" transform="translate(115.03,232.65) rotate(0.1)" width="70.08" height="52.28" rx="0.91"/>
<path fill="#ffffff" d="
  M 81.12 276.43
  L 271.34 276.43
  A 1.05 1.05 0.0 0 1 272.39 277.48
  L 272.39 341.82
  A 1.16 1.16 0.0 0 1 271.23 342.98
  Q 152.44 343.04 148.56 342.97
  Q 146.54 342.93 144.41 340.83
  Q 134.74 331.33 90.78 287.22
  Q 86.26 282.69 80.94 276.83
  A 0.24 0.24 0.0 0 1 81.12 276.43
  Z"
/>
<path fill="#ffffff" d="
  M 303.22 424.43
  Q 307.41 421.67 316.48 421.12
  C 325.48 420.58 334.26 423.26 339.75 430.47
  Q 341.69 433.01 343.59 438.36
  Q 361.86 489.82 375.82 529.25
  A 1.58 1.57 -44.7 0 1 375.81 530.35
  L 370.35 545.03
  A 0.39 0.38 -76.2 0 0 370.66 545.55
  Q 371.56 545.68 372.45 546.35
  A 0.44 0.44 0.0 0 0 373.13 546.14
  Q 391.67 494.97 412.97 436.22
  C 418.84 420.02 438.62 418.31 452.31 424.11
  A 0.57 0.56 -68.3 0 1 452.62 424.84
  Q 447.57 437.83 394.35 575.11
  Q 391.25 583.11 384.08 584.98
  Q 374.47 587.49 367.25 582.92
  Q 363.94 580.83 362.00 575.85
  Q 307.35 436.25 303.64 425.67
  Q 303.57 425.46 303.18 425.15
  A 0.45 0.44 -42.3 0 1 303.22 424.43
  Z"
/>
<path fill="#ffffff" d="
  M 12.97 438.38
  A 15.49 15.49 0.0 0 1 28.51 422.94
  L 84.56 423.14
  A 65.76 62.15 0.2 0 1 150.10 485.52
  L 149.98 521.98
  A 65.76 62.15 0.2 0 1 84.00 583.90
  L 27.95 583.70
  A 15.49 15.49 0.0 0 1 12.51 568.16
  L 12.97 438.38
  Z
  M 46.53 452.36
  L 46.53 554.62
  A 0.25 0.25 0.0 0 0 46.78 554.87
  L 82.71 554.87
  A 33.50 31.70 -0.0 0 0 116.21 523.17
  L 116.21 483.81
  A 33.50 31.70 -0.0 0 0 82.71 452.11
  L 46.78 452.11
  A 0.25 0.25 0.0 0 0 46.53 452.36
  Z"
/>
<path fill="#ffffff" d="
  M 204.24 517.81
  L 204.24 554.66
  A 0.36 0.36 0.0 0 0 204.60 555.02
  Q 253.37 554.94 273.25 555.02
  C 283.13 555.07 290.64 559.20 293.26 569.25
  Q 295.13 576.41 294.93 583.46
  A 0.59 0.59 0.0 0 1 294.34 584.04
  Q 278.91 583.97 188.01 584.01
  C 178.75 584.02 170.52 578.24 170.51 568.50
  Q 170.48 519.08 170.51 439.25
  C 170.51 432.06 174.45 426.56 181.24 424.09
  Q 184.32 422.96 191.45 422.96
  Q 233.42 422.97 289.87 423.00
  A 0.56 0.55 -89.5 0 1 290.42 423.57
  Q 290.26 430.10 288.85 436.41
  Q 286.31 447.74 276.97 450.87
  Q 273.25 452.13 259.42 452.04
  Q 245.59 451.96 204.54 452.02
  A 0.30 0.29 -0.0 0 0 204.24 452.31
  L 204.24 487.71
  A 0.54 0.54 0.0 0 0 204.78 488.25
  L 263.99 488.25
  A 0.50 0.50 0.0 0 1 264.49 488.75
  C 264.57 497.92 263.07 511.81 252.77 515.52
  Q 248.52 517.05 244.43 517.15
  Q 236.05 517.34 204.84 517.21
  A 0.60 0.60 0.0 0 0 204.24 517.81
  Z"
/>
</svg>
